<svg width="255" height="80" viewBox="0 0 255 80" fill="none" xmlns="http://www.w3.org/2000/svg">
<path d="M4.12769 63.1056V31.5588H11.3034L11.9384 36.9014C12.9121 35.0357 14.3092 33.5517 16.1296 32.4492C17.9923 31.3467 20.1725 30.7955 22.6703 30.7955C26.5651 30.7955 29.592 32.0252 31.751 34.4845C33.9101 36.9438 34.9896 40.5479 34.9896 45.2969V63.1056H26.8614V46.0601C26.8614 43.3464 26.311 41.2687 25.2103 39.8271C24.1096 38.3855 22.3951 37.6646 20.0667 37.6646C17.7806 37.6646 15.8967 38.4702 14.415 40.0815C12.9756 41.6928 12.2559 43.94 12.2559 46.8234V63.1056H4.12769ZM58.0661 63.8688C54.891 63.8688 52.0756 63.1906 49.6204 61.8336C47.165 60.4765 45.2387 58.5685 43.8417 56.1093C42.4447 53.6502 41.7461 50.809 41.7461 47.5866C41.7461 44.3217 42.4235 41.4172 43.7782 38.8731C45.1752 36.329 47.0803 34.3573 49.4934 32.958C51.9486 31.5164 54.8275 30.7955 58.1296 30.7955C61.2199 30.7955 63.9505 31.474 66.3214 32.8308C68.6923 34.1877 70.5339 36.0533 71.8461 38.4278C73.2009 40.7599 73.8781 43.3676 73.8781 46.2509C73.8781 46.7174 73.8568 47.205 73.8146 47.7138C73.8146 48.2226 73.7933 48.7527 73.7511 49.3039H49.8109C49.9801 51.763 50.8269 53.6924 52.351 55.0917C53.9172 56.4909 55.8014 57.1906 58.0026 57.1906C59.6537 57.1906 61.0294 56.8303 62.1303 56.1093C63.2733 55.3461 64.1202 54.3707 64.6703 53.1836H72.9256C72.3327 55.1767 71.338 56.9998 69.941 58.6534C68.5861 60.2649 66.8929 61.5369 64.8608 62.4696C62.871 63.4023 60.6062 63.8688 58.0661 63.8688ZM58.1296 37.4102C56.1397 37.4102 54.383 37.9826 52.859 39.1275C51.3349 40.2299 50.3611 41.926 49.9379 44.2157H65.6229C65.4959 42.138 64.7338 40.4843 63.3368 39.2547C61.9398 38.025 60.2039 37.4102 58.1296 37.4102ZM94.1903 63.1056C90.8882 63.1056 88.2425 62.3001 86.2526 60.6887C84.2627 59.0773 83.268 56.2152 83.268 52.1024V38.3642H77.8703V31.5588H83.268L84.2205 23.0996H91.3962V31.5588H99.9055V38.3642H91.3962V52.166C91.3962 53.6924 91.7137 54.7523 92.3487 55.3461C93.0259 55.8972 94.169 56.1729 95.7779 56.1729H99.715V63.1056H94.1903Z" fill="#1E293B"/>
<path d="M106.884 63.1056V17.3118H115.012V63.1056H106.884ZM138.622 63.8688C135.447 63.8688 132.631 63.1906 130.176 61.8335C127.721 60.4765 125.794 58.5684 124.397 56.1093C123 53.6502 122.302 50.8089 122.302 47.5866C122.302 44.3216 122.979 41.4171 124.334 38.873C125.731 36.3289 127.636 34.3573 130.049 32.958C132.504 31.5164 135.383 30.7955 138.685 30.7955C141.775 30.7955 144.506 31.4739 146.877 32.8308C149.248 34.1877 151.089 36.0533 152.402 38.4278C153.757 40.7599 154.434 43.3676 154.434 46.2509C154.434 46.7174 154.412 47.205 154.37 47.7138C154.37 48.2226 154.349 48.7526 154.307 49.3039H130.366C130.536 51.763 131.383 53.6924 132.907 55.0917C134.473 56.4909 136.357 57.1906 138.558 57.1906C140.209 57.1906 141.585 56.8303 142.686 56.1093C143.829 55.3461 144.676 54.3707 145.226 53.1836H153.481C152.888 55.1766 151.894 56.9997 150.497 58.6534C149.142 60.2648 147.449 61.5369 145.416 62.4696C143.427 63.4022 141.162 63.8688 138.622 63.8688ZM138.685 37.4102C136.695 37.4102 134.939 37.9826 133.415 39.1275C131.891 40.2299 130.917 41.926 130.493 44.2157H146.178C146.051 42.138 145.289 40.4843 143.892 39.2547C142.495 38.025 140.759 37.4102 138.685 37.4102ZM206.011 63.8688C203.048 63.8688 200.402 63.1478 198.073 61.7063C195.745 60.2648 193.904 58.2932 192.549 55.7913C191.194 53.2894 190.517 50.4487 190.517 47.2686C190.517 44.0884 191.194 41.2687 192.549 38.8094C193.904 36.3077 195.745 34.3573 198.073 32.958C200.402 31.5164 203.048 30.7955 206.011 30.7955C208.382 30.7955 210.456 31.2407 212.234 32.1312C214.012 33.0216 215.452 34.2724 216.553 35.8837V17.3118H224.681V63.1056H217.442L216.553 58.5898C215.536 59.9891 214.182 61.2189 212.488 62.2788C210.837 63.3386 208.678 63.8688 206.011 63.8688ZM207.726 56.7453C210.351 56.7453 212.488 55.8763 214.139 54.1376C215.833 52.3568 216.68 50.0884 216.68 47.3322C216.68 44.576 215.833 42.3288 214.139 40.5903C212.488 38.8094 210.351 37.919 207.726 37.919C205.143 37.919 203.005 38.7882 201.312 40.5267C199.619 42.2652 198.772 44.5124 198.772 47.2686C198.772 50.0248 199.619 52.2932 201.312 54.074C203.005 55.8549 205.143 56.7453 207.726 56.7453Z" fill="#3B82F6"/>
<path d="M187.991 31.8508C188.055 31.5017 188.02 31.1416 187.891 30.8108C187.763 30.4801 187.545 30.1917 187.262 29.978C186.979 29.7643 186.642 29.6337 186.289 29.6007C185.936 29.5678 185.581 29.6338 185.264 29.7914L158.489 43.1134C158.157 43.2785 157.88 43.5369 157.692 43.8569C157.504 44.177 157.413 44.5449 157.43 44.9159C157.448 45.2868 157.572 45.6447 157.789 45.9459C158.006 46.2471 158.305 46.4785 158.651 46.6121L167.92 50.1883C168.308 50.3374 168.733 50.3563 169.132 50.242C169.531 50.1277 169.882 49.8862 170.132 49.5538L175.388 42.5718C175.693 42.1667 176.147 41.8995 176.648 41.8291C177.15 41.7586 177.659 41.8907 178.064 42.1961C178.468 42.5016 178.735 42.9555 178.805 43.4579C178.875 43.9604 178.744 44.4702 178.439 44.8754L173.182 51.8574C172.932 52.1893 172.796 52.5938 172.796 53.0097C172.796 53.4256 172.931 53.83 173.181 54.162L179.164 62.1019C179.388 62.3985 179.692 62.6236 180.04 62.7498C180.389 62.876 180.767 62.8979 181.128 62.8124C181.489 62.7274 181.817 62.5391 182.073 62.2703C182.329 62.0015 182.5 61.6641 182.568 61.2989L187.992 31.852L187.991 31.8508Z" fill="#3B82F6"/>
</svg>
